<svg width="16" height="16" viewBox="0 0 16 16" fill="none" xmlns="http://www.w3.org/2000/svg">
<g clip-path="url(#clip0_54_56)">
<path d="M5.59977 9.63297C7.64163 11.6748 9.67087 13.7041 10.1676 14.2008C9.72302 13.7019 9.45296 13.0449 9.45296 12.3247V5.50479C5.69583 1.68617 4.82309 0.837044 4.80388 0.855706C4.79016 0.868879 5.26111 1.28878 5.48231 2.01441C5.58166 2.3399 5.60032 2.62697 5.59977 2.82182V9.63297Z" fill="#8200DB"/>
<path d="M14.4528 14.119C14.916 13.5603 15.1312 12.8654 15.0972 12.1798V12.3242C15.0972 13.0059 14.8557 13.6311 14.4528 14.119Z" fill="#D9068E"/>
<path d="M14.4506 14.1218C14.4231 14.1547 14.3951 14.1871 14.3666 14.2189C14.3957 14.1871 14.4237 14.1547 14.4506 14.1218Z" fill="#D9068E"/>
<path d="M14.453 14.119C14.453 14.119 14.4512 14.1209 14.4506 14.1215C14.4512 14.1209 14.4524 14.1197 14.453 14.119Z" fill="#0E0E68"/>
<path d="M10.2829 14.3161L10.1676 14.2008C10.6847 14.781 11.4366 15.1466 12.2748 15.1466C13.1042 15.1466 13.8501 14.7887 14.366 14.2189C14.3359 14.2519 14.3051 14.2843 14.2738 14.3161C13.1717 15.4183 11.385 15.4183 10.2829 14.3161Z" fill="#0E0E68"/>
<path d="M14.2738 10.3251C14.7892 10.8405 15.0631 11.5052 15.0966 12.1798C15.0966 10.9898 15.0966 2.83227 15.0966 2.82184C15.0966 4.38013 13.8331 5.64367 12.2748 5.64367C10.7165 5.64367 9.45296 4.38013 9.45296 2.82184C9.45296 2.82184 9.45296 3.98877 9.45296 5.50425C11.8483 7.8996 14.2727 10.324 14.2738 10.3251Z" fill="#59168B"/>
<path d="M10.1676 14.2008L10.2829 14.3161C11.385 15.4183 13.1717 15.4183 14.2738 14.3161C14.3057 14.2843 14.3364 14.2519 14.3661 14.2189C14.3946 14.1871 14.4231 14.1547 14.45 14.1218C14.4506 14.1212 14.4517 14.1201 14.4522 14.1196C14.8546 13.6316 15.0966 13.0064 15.0966 12.3247V12.1804C15.0631 11.5058 14.7887 10.8411 14.2738 10.3257C14.2727 10.3246 11.8483 7.90014 9.45296 5.50479C9.45296 8.31455 9.45296 12.3231 9.45296 12.3247C9.45296 13.0454 9.72356 13.7024 10.1676 14.2008Z" fill="#6E11B0"/>
<path d="M15.0966 2.82183C15.0966 1.26354 13.8331 0 12.2748 0C10.7165 0 9.45296 1.26354 9.45296 2.82183C9.45296 4.38013 10.7165 5.64367 12.2748 5.64367C13.8331 5.64367 15.0966 4.38013 15.0966 2.82183Z" fill="#3C0366"/>
<path d="M0.406174 1.02722C0.406174 1.02722 0.408004 1.02539 0.408614 1.02478C0.408004 1.02539 0.406784 1.02661 0.406174 1.02722Z" fill="#0E0E68"/>
<path d="M0.822783 4.82088C0.307926 4.30602 0.0334822 3.64077 0 2.96619C0 4.15618 0 12.3137 0 12.3242C0 10.7659 1.26354 9.50234 2.82183 9.50234C4.38013 9.50234 5.64367 10.7659 5.64367 12.3242C5.64367 12.3242 5.64367 11.1572 5.64367 9.64176C3.24832 7.24642 0.823881 4.82198 0.822783 4.82088Z" fill="#AD46FF"/>
<path d="M4.92901 0.945737L4.81375 0.83047C3.71158 -0.271697 1.92495 -0.271697 0.822783 0.83047C0.790948 0.862306 0.76021 0.89469 0.73057 0.927624C0.702028 0.959459 0.673486 0.991844 0.64659 1.02478C0.646041 1.02533 0.644943 1.02642 0.644395 1.02697C0.241511 1.51493 0 2.14012 0 2.82184V2.96619C0.0334822 3.64078 0.307926 4.30548 0.822783 4.82089C0.823881 4.82198 3.24832 7.24642 5.64367 9.64177C5.64367 6.83201 5.64367 2.82348 5.64367 2.82184C5.64367 2.10115 5.37306 1.44413 4.92901 0.945737Z" fill="#9810FA"/>
<path d="M0 12.3242C0 13.8825 1.26354 15.146 2.82183 15.146C4.38013 15.146 5.64367 13.8825 5.64367 12.3242C5.64367 10.7659 4.38013 9.50235 2.82183 9.50235C1.26354 9.5029 0 10.7659 0 12.3242Z" fill="#C27AFF"/>
</g>
<defs>
<clipPath id="clip0_54_56">
<rect width="15.1005" height="15.1466" fill="white"/>
</clipPath>
</defs>
</svg>
