<svg width="132" height="58" viewBox="0 0 132 58" fill="none" xmlns="http://www.w3.org/2000/svg">
<g clip-path="url(#clip0_54_55)">
<path d="M19.5998 30.633C21.6416 32.6748 23.6709 34.7041 24.1676 35.2008C23.723 34.7019 23.453 34.0449 23.453 33.3247V26.5048C19.6958 22.6862 18.8231 21.837 18.8039 21.8557C18.7902 21.8689 19.2611 22.2888 19.4823 23.0144C19.5817 23.3399 19.6003 23.627 19.5998 23.8218V30.633Z" fill="#8200DB"/>
<path d="M28.4528 35.119C28.916 34.5603 29.1312 33.8654 29.0972 33.1798V33.3242C29.0972 34.0059 28.8557 34.6311 28.4528 35.119Z" fill="#D9068E"/>
<path d="M28.4506 35.1218C28.4231 35.1547 28.3951 35.1871 28.3666 35.2189C28.3957 35.1871 28.4237 35.1547 28.4506 35.1218Z" fill="#D9068E"/>
<path d="M28.453 35.119C28.453 35.119 28.4512 35.1209 28.4506 35.1215C28.4512 35.1209 28.4524 35.1197 28.453 35.119Z" fill="#0E0E68"/>
<path d="M24.2829 35.3161L24.1676 35.2008C24.6847 35.781 25.4366 36.1466 26.2748 36.1466C27.1042 36.1466 27.8501 35.7887 28.366 35.2189C28.3359 35.2519 28.3051 35.2843 28.2738 35.3161C27.1717 36.4183 25.385 36.4183 24.2829 35.3161Z" fill="#0E0E68"/>
<path d="M28.2738 31.3251C28.7892 31.8405 29.0631 32.5052 29.0966 33.1798C29.0966 31.9898 29.0966 23.8323 29.0966 23.8218C29.0966 25.3801 27.8331 26.6437 26.2748 26.6437C24.7165 26.6437 23.453 25.3801 23.453 23.8218C23.453 23.8218 23.453 24.9888 23.453 26.5043C25.8483 28.8996 28.2727 31.324 28.2738 31.3251Z" fill="#59168B"/>
<path d="M24.1676 35.2008L24.2829 35.3161C25.385 36.4183 27.1717 36.4183 28.2738 35.3161C28.3057 35.2843 28.3364 35.2519 28.3661 35.2189C28.3946 35.1871 28.4231 35.1547 28.45 35.1218C28.4506 35.1212 28.4517 35.1201 28.4522 35.1196C28.8546 34.6316 29.0966 34.0064 29.0966 33.3247V33.1804C29.0631 32.5058 28.7887 31.8411 28.2738 31.3257C28.2727 31.3246 25.8483 28.9001 23.453 26.5048C23.453 29.3145 23.453 33.3231 23.453 33.3247C23.453 34.0454 23.7236 34.7024 24.1676 35.2008Z" fill="#6E11B0"/>
<path d="M29.0966 23.8218C29.0966 22.2635 27.8331 21 26.2748 21C24.7165 21 23.453 22.2635 23.453 23.8218C23.453 25.3801 24.7165 26.6437 26.2748 26.6437C27.8331 26.6437 29.0966 25.3801 29.0966 23.8218Z" fill="#3C0366"/>
<path d="M14.4062 22.0272C14.4062 22.0272 14.408 22.0254 14.4086 22.0248C14.408 22.0254 14.4068 22.0266 14.4062 22.0272Z" fill="#0E0E68"/>
<path d="M14.8228 25.8209C14.3079 25.306 14.0335 24.6408 14 23.9662C14 25.1562 14 33.3137 14 33.3242C14 31.7659 15.2635 30.5023 16.8218 30.5023C18.3801 30.5023 19.6437 31.7659 19.6437 33.3242C19.6437 33.3242 19.6437 32.1572 19.6437 30.6418C17.2483 28.2464 14.8239 25.822 14.8228 25.8209Z" fill="#AD46FF"/>
<path d="M18.929 21.9457L18.8137 21.8305C17.7116 20.7283 15.925 20.7283 14.8228 21.8305C14.7909 21.8623 14.7602 21.8947 14.7306 21.9276C14.702 21.9595 14.6735 21.9918 14.6466 22.0248C14.646 22.0253 14.6449 22.0264 14.6444 22.027C14.2415 22.5149 14 23.1401 14 23.8218V23.9662C14.0335 24.6408 14.3079 25.3055 14.8228 25.8209C14.8239 25.822 17.2483 28.2464 19.6437 30.6418C19.6437 27.832 19.6437 23.8235 19.6437 23.8218C19.6437 23.1011 19.3731 22.4441 18.929 21.9457Z" fill="#9810FA"/>
<path d="M14 33.3242C14 34.8825 15.2635 36.146 16.8218 36.146C18.3801 36.146 19.6437 34.8825 19.6437 33.3242C19.6437 31.7659 18.3801 30.5023 16.8218 30.5023C15.2635 30.5029 14 31.7659 14 33.3242Z" fill="#C27AFF"/>
</g>
<path d="M36.8739 32.1944C36.663 32.1866 36.4833 32.1123 36.3348 31.9717C36.1864 31.8233 36.1083 31.6436 36.1005 31.4326V28.5147C36.1083 27.96 36.1864 27.4366 36.3348 26.9444C36.4911 26.4522 36.745 26.0381 37.0966 25.7022C37.4559 25.3584 37.9091 25.1709 38.4559 25.1397H42.9794C43.1903 25.1475 43.3661 25.2256 43.5067 25.3741C43.6552 25.5147 43.7333 25.6905 43.7411 25.9014C43.7411 26.1201 43.6669 26.3076 43.5184 26.4639C43.3778 26.6201 43.1981 26.7022 42.9794 26.71H38.8544C38.5575 26.7256 38.3114 26.8389 38.1161 27.0498C37.9208 27.2608 37.7958 27.503 37.7411 27.7764C37.6942 28.042 37.6747 28.335 37.6825 28.6553V31.4326C37.6747 31.6514 37.5927 31.835 37.4364 31.9834C37.2802 32.1241 37.0927 32.1944 36.8739 32.1944ZM38.2333 29.1123C38.2333 28.8936 38.3114 28.71 38.4677 28.5616C38.6161 28.4053 38.7997 28.3272 39.0184 28.3272H42.9794C43.1981 28.3272 43.3817 28.4053 43.5302 28.5616C43.6864 28.71 43.7645 28.8936 43.7645 29.1123C43.7645 29.3311 43.6903 29.5186 43.5419 29.6748C43.3856 29.8233 43.1981 29.8975 42.9794 29.8975H39.0184C38.7997 29.8975 38.6122 29.8233 38.4559 29.6748C38.3075 29.5186 38.2333 29.3311 38.2333 29.1123Z" fill="url(#paint0_linear_54_55)"/>
<path d="M46.413 31.4561C46.3661 31.9248 46.1083 32.1787 45.6395 32.2178C45.4208 32.2178 45.2294 32.1475 45.0653 32.0069C44.9091 31.8584 44.8309 31.6748 44.8309 31.4561V25.9014C44.8387 25.6826 44.9208 25.503 45.077 25.3623C45.2333 25.2139 45.4208 25.1397 45.6395 25.1397H50.5497C50.5966 25.1397 50.6434 25.1436 50.6903 25.1514H50.7606C51.3075 25.167 51.7567 25.292 52.1083 25.5264C52.4598 25.7608 52.7137 26.0303 52.87 26.335C53.0262 26.6319 53.1044 26.9326 53.1044 27.2373C53.1044 27.5498 53.0262 27.8584 52.87 28.1631C52.7216 28.46 52.4677 28.7256 52.1083 28.96C51.7567 29.1944 51.3075 29.3194 50.7606 29.335H48.6981C48.7606 29.7256 48.8895 30.0147 49.0848 30.2022C49.2723 30.3897 49.5106 30.4834 49.7997 30.4834H52.3309C52.5497 30.4912 52.7294 30.5733 52.87 30.7295C53.0184 30.8858 53.0927 31.0733 53.0927 31.292C53.0848 31.503 53.0067 31.6826 52.8583 31.8311C52.7177 31.9717 52.5419 32.0459 52.3309 32.0537H49.5887C49.0106 32.0616 48.4872 31.835 48.0184 31.3741C47.5497 30.9131 47.2645 30.3662 47.163 29.7334C47.0223 29.0303 46.952 28.6358 46.952 28.5498C46.952 28.3311 47.0262 28.1475 47.1747 27.9991C47.3309 27.8428 47.5184 27.7647 47.7372 27.7647H50.8309C50.9794 27.7569 51.1005 27.7256 51.1942 27.6709C51.2958 27.6084 51.37 27.542 51.4169 27.4717C51.4637 27.3936 51.4872 27.3155 51.4872 27.2373C51.4872 27.1592 51.4637 27.085 51.4169 27.0147C51.37 26.9366 51.2958 26.8701 51.1942 26.8155C51.1005 26.753 50.9794 26.7178 50.8309 26.71H46.7177C46.5145 26.7178 46.413 26.8194 46.413 27.0147V31.4561Z" fill="url(#paint1_linear_54_55)"/>
<path d="M60.663 25.1397C61.0614 25.1475 61.4169 25.2725 61.7294 25.5147C62.0419 25.7569 62.2919 26.0459 62.4794 26.3819C62.6747 26.7178 62.8192 27.0733 62.913 27.4483C63.0067 27.8233 63.0536 28.2061 63.0536 28.5967C63.0536 29.1123 62.9716 29.6201 62.8075 30.1201C62.6512 30.6123 62.3895 31.0498 62.0223 31.4326C61.663 31.8155 61.2098 32.0225 60.663 32.0537H56.5731C56.0262 32.0303 55.5692 31.8272 55.202 31.4444C54.8348 31.0616 54.5731 30.6201 54.4169 30.1201C54.2684 29.6201 54.1942 29.1123 54.1942 28.5967C54.1942 28.0811 54.2723 27.5772 54.4286 27.085C54.5848 26.585 54.8427 26.1436 55.202 25.7608C55.5692 25.3701 56.0262 25.1631 56.5731 25.1397H60.663ZM60.2645 30.4834C60.5614 30.4678 60.8075 30.3584 61.0028 30.1553C61.2059 29.9444 61.3505 29.7022 61.4364 29.4287C61.5223 29.1553 61.5653 28.878 61.5653 28.5967C61.5653 28.3155 61.5184 28.042 61.4247 27.7764C61.3387 27.503 61.1981 27.2608 61.0028 27.0498C60.8075 26.8389 60.5614 26.7256 60.2645 26.71H56.9364C56.6395 26.7256 56.3934 26.8389 56.1981 27.0498C56.0028 27.2608 55.8583 27.503 55.7645 27.7764C55.6786 28.042 55.6356 28.3155 55.6356 28.5967C55.6356 28.878 55.6786 29.1553 55.7645 29.4287C55.8505 29.7022 55.9911 29.9444 56.1864 30.1553C56.3895 30.3584 56.6395 30.4678 56.9364 30.4834H60.2645Z" fill="url(#paint2_linear_54_55)"/>
<path d="M68.0692 24.8233C68.4755 24.8233 68.8739 24.8701 69.2645 24.9639C69.663 25.0576 70.0419 25.1983 70.4012 25.3858C70.7606 25.5655 71.077 25.8076 71.3505 26.1123C71.6317 26.417 71.7841 26.7803 71.8075 27.2022V31.4326C71.7606 31.9014 71.5028 32.1553 71.0341 32.1944C70.8153 32.1944 70.6239 32.1241 70.4598 31.9834C70.3036 31.835 70.2255 31.6514 70.2255 31.4326V27.5655C70.2098 27.3233 70.1161 27.1241 69.9442 26.9678C69.7802 26.8037 69.5927 26.6748 69.3817 26.5811C69.1786 26.4873 68.9637 26.417 68.7372 26.3701C68.5184 26.3233 68.2958 26.2998 68.0692 26.2998C67.8427 26.2998 67.6161 26.3233 67.3895 26.3701C67.1708 26.417 66.9559 26.4873 66.745 26.5811C66.5419 26.6748 66.3544 26.8037 66.1825 26.9678C66.0184 27.1241 65.9286 27.3233 65.913 27.5655V31.4326C65.8739 31.9014 65.62 32.1553 65.1512 32.1944C64.9325 32.1944 64.7411 32.1241 64.577 31.9834C64.4208 31.835 64.3427 31.6514 64.3427 31.4326V27.2022C64.3661 26.7803 64.5145 26.417 64.788 26.1123C65.0614 25.8076 65.3778 25.5655 65.7372 25.3858C66.0966 25.1983 66.4716 25.0576 66.8622 24.9639C67.2606 24.8701 67.663 24.8233 68.0692 24.8233Z" fill="url(#paint3_linear_54_55)"/>
<path d="M77.0223 24.8233C77.4286 24.8233 77.827 24.8701 78.2177 24.9639C78.6161 25.0576 78.995 25.1983 79.3544 25.3858C79.7137 25.5655 80.0302 25.8076 80.3036 26.1123C80.5848 26.417 80.7372 26.7803 80.7606 27.2022V31.4326C80.7137 31.9014 80.4559 32.1553 79.9872 32.1944C79.7684 32.1944 79.577 32.1241 79.413 31.9834C79.2567 31.835 79.1786 31.6514 79.1786 31.4326V27.5655C79.163 27.3233 79.0692 27.1241 78.8973 26.9678C78.7333 26.8037 78.5458 26.6748 78.3348 26.5811C78.1317 26.4873 77.9169 26.417 77.6903 26.3701C77.4716 26.3233 77.2489 26.2998 77.0223 26.2998C76.7958 26.2998 76.5692 26.3233 76.3427 26.3701C76.1239 26.417 75.9091 26.4873 75.6981 26.5811C75.495 26.6748 75.3075 26.8037 75.1356 26.9678C74.9716 27.1241 74.8817 27.3233 74.8661 27.5655V31.4326C74.827 31.9014 74.5731 32.1553 74.1044 32.1944C73.8856 32.1944 73.6942 32.1241 73.5302 31.9834C73.3739 31.835 73.2958 31.6514 73.2958 31.4326V27.2022C73.3192 26.7803 73.4677 26.417 73.7411 26.1123C74.0145 25.8076 74.3309 25.5655 74.6903 25.3858C75.0497 25.1983 75.4247 25.0576 75.8153 24.9639C76.2137 24.8701 76.6161 24.8233 77.0223 24.8233Z" fill="url(#paint4_linear_54_55)"/>
<path d="M84.4169 25.1397H88.9403C89.1591 25.1475 89.3387 25.2295 89.4794 25.3858C89.6278 25.542 89.702 25.7295 89.702 25.9483C89.663 26.417 89.4091 26.6709 88.9403 26.71H84.8153C84.5184 26.7256 84.2723 26.8389 84.077 27.0498C83.8817 27.2608 83.7372 27.503 83.6434 27.7764C83.5575 28.042 83.5145 28.3155 83.5145 28.5967C83.5145 28.878 83.5575 29.1553 83.6434 29.4287C83.7372 29.6944 83.8817 29.9326 84.077 30.1436C84.2723 30.3545 84.5184 30.4678 84.8153 30.4834H88.9403C89.1591 30.4912 89.3387 30.5733 89.4794 30.7295C89.6278 30.8858 89.702 31.0733 89.702 31.292C89.6942 31.503 89.6161 31.6826 89.4677 31.8311C89.327 31.9717 89.1512 32.0459 88.9403 32.0537H84.4169C83.87 32.0225 83.4169 31.8155 83.0575 31.4326C82.7059 31.042 82.452 30.6006 82.2958 30.1084C82.1473 29.6162 82.0731 29.1123 82.0731 28.5967C82.0731 28.0811 82.1512 27.5772 82.3075 27.085C82.4637 26.5928 82.7177 26.1553 83.0692 25.7725C83.4208 25.3819 83.87 25.1709 84.4169 25.1397ZM89.6786 28.5498C89.6786 28.7686 89.6005 28.9522 89.4442 29.1006C89.2958 29.2569 89.1122 29.335 88.8934 29.335H85.3544C85.1356 29.335 84.9481 29.2608 84.7919 29.1123C84.6434 28.9561 84.5692 28.7686 84.5692 28.5498C84.5692 28.3311 84.6434 28.1436 84.7919 27.9873C84.9481 27.8389 85.1356 27.7647 85.3544 27.7647H88.8934C89.1122 27.7647 89.2958 27.8428 89.4442 27.9991C89.6005 28.1475 89.6786 28.3311 89.6786 28.5498Z" fill="url(#paint5_linear_54_55)"/>
<path d="M94.12 28.4326C93.9091 28.0342 93.6434 27.6553 93.3231 27.2959C93.0028 26.9366 92.6942 26.7412 92.3973 26.71H91.413C91.1942 26.71 91.0106 26.6319 90.8622 26.4756C90.7059 26.3272 90.6278 26.1436 90.6278 25.9248C90.6278 25.7061 90.702 25.5225 90.8505 25.3741C91.0067 25.2178 91.1942 25.1397 91.413 25.1397H92.3973V25.1514H92.5145C93.077 25.1826 93.6591 25.4991 94.2606 26.1006C94.5575 26.4053 94.8309 26.7491 95.0809 27.1319C95.3309 26.7491 95.6083 26.4053 95.913 26.1006C96.5067 25.4991 97.0848 25.1826 97.6473 25.1514H97.7645V25.1397H98.7489C98.9677 25.1397 99.1512 25.2178 99.2997 25.3741C99.4559 25.5225 99.5341 25.7061 99.5341 25.9248C99.5341 26.1436 99.4559 26.3272 99.2997 26.4756C99.1512 26.6319 98.9677 26.71 98.7489 26.71H97.7645C97.4677 26.7412 97.1591 26.9366 96.8387 27.2959C96.5184 27.6553 96.2528 28.0342 96.0419 28.4326C95.995 28.5186 95.9481 28.6006 95.9012 28.6787C95.9169 28.7022 95.9325 28.7256 95.9481 28.7491C96.1591 29.1553 96.4247 29.5381 96.745 29.8975C97.0653 30.2569 97.3739 30.4483 97.6708 30.4717H98.6552C98.8739 30.4717 99.0575 30.5498 99.2059 30.7061C99.3622 30.8545 99.4403 31.0381 99.4403 31.2569C99.4403 31.4756 99.3622 31.6631 99.2059 31.8194C99.0575 31.9678 98.8739 32.042 98.6552 32.042H97.5536C96.9911 32.0108 96.413 31.6983 95.8192 31.1045C95.5536 30.8311 95.3075 30.5342 95.0809 30.2139C94.8544 30.5342 94.6083 30.8311 94.3427 31.1045C93.7489 31.6983 93.1708 32.0108 92.6083 32.042H91.5067C91.288 32.042 91.1005 31.9678 90.9442 31.8194C90.7958 31.6631 90.7216 31.4756 90.7216 31.2569C90.7216 31.0381 90.7997 30.8545 90.9559 30.7061C91.1044 30.5498 91.288 30.4717 91.5067 30.4717H92.4911C92.788 30.4483 93.0966 30.2569 93.4169 29.8975C93.7372 29.5381 94.0028 29.1553 94.2137 28.7491C94.2294 28.7256 94.245 28.7022 94.2606 28.6787C94.2137 28.6006 94.1669 28.5186 94.12 28.4326Z" fill="url(#paint6_linear_54_55)"/>
<path d="M104.479 32.3233C104.073 32.3233 103.671 32.2764 103.272 32.1826C102.882 32.0889 102.507 31.9522 102.147 31.7725C101.788 31.585 101.472 31.3389 101.198 31.0342C100.925 30.7295 100.776 30.3662 100.753 29.9444V25.7139C100.753 25.4951 100.831 25.3155 100.987 25.1748C101.151 25.0264 101.343 24.9522 101.561 24.9522C102.03 24.9912 102.284 25.2451 102.323 25.7139V29.5811C102.339 29.8233 102.429 30.0264 102.593 30.1905C102.765 30.3467 102.952 30.4717 103.155 30.5655C103.366 30.6592 103.581 30.7295 103.8 30.7764C104.026 30.8233 104.253 30.8467 104.479 30.8467C104.706 30.8467 104.929 30.8233 105.147 30.7764C105.374 30.7295 105.589 30.6592 105.792 30.5655C106.003 30.4717 106.19 30.3467 106.354 30.1905C106.526 30.0264 106.62 29.8233 106.636 29.5811V25.7139C106.636 25.4951 106.714 25.3155 106.87 25.1748C107.034 25.0264 107.225 24.9522 107.444 24.9522C107.913 24.9912 108.171 25.2451 108.218 25.7139V29.9444C108.194 30.3662 108.042 30.7295 107.761 31.0342C107.487 31.3389 107.171 31.585 106.811 31.7725C106.452 31.9522 106.073 32.0889 105.675 32.1826C105.284 32.2764 104.886 32.3233 104.479 32.3233Z" fill="url(#paint7_linear_54_55)"/>
<path d="M117.358 25.9248C117.358 26.1436 117.28 26.3272 117.124 26.4756C116.975 26.6319 116.792 26.71 116.573 26.71H111.886C111.737 26.7178 111.612 26.753 111.511 26.8155C111.417 26.8701 111.347 26.9366 111.3 27.0147C111.253 27.085 111.229 27.1592 111.229 27.2373C111.229 27.3155 111.253 27.3936 111.3 27.4717C111.347 27.542 111.417 27.6084 111.511 27.6709C111.612 27.7256 111.737 27.7569 111.886 27.7647H115.214C115.761 27.7803 116.21 27.9092 116.561 28.1514C116.921 28.3858 117.175 28.6592 117.323 28.9717C117.479 29.2764 117.557 29.5889 117.557 29.9092C117.557 30.2217 117.479 30.5342 117.323 30.8467C117.167 31.1514 116.913 31.4248 116.561 31.667C116.21 31.9014 115.761 32.0186 115.214 32.0186H115.143C115.097 32.0264 115.05 32.0303 115.003 32.0303H110.573C110.354 32.0303 110.167 31.9561 110.011 31.8076C109.862 31.6514 109.788 31.4639 109.788 31.2451C109.788 31.0264 109.866 30.8428 110.022 30.6944C110.171 30.5381 110.354 30.46 110.573 30.46H115.284C115.432 30.4678 115.554 30.4405 115.647 30.378C115.749 30.3155 115.823 30.2451 115.87 30.167C115.917 30.0811 115.94 29.9951 115.94 29.9092C115.94 29.8545 115.917 29.7803 115.87 29.6866C115.823 29.585 115.749 29.503 115.647 29.4405C115.554 29.378 115.432 29.3428 115.284 29.335H111.956C111.409 29.3194 110.956 29.1944 110.597 28.96C110.245 28.7256 109.991 28.46 109.835 28.1631C109.686 27.8584 109.612 27.5498 109.612 27.2373C109.612 26.9326 109.69 26.6319 109.847 26.335C110.003 26.0303 110.257 25.7608 110.608 25.5264C110.96 25.292 111.409 25.167 111.956 25.1514H112.026C112.073 25.1436 112.12 25.1397 112.167 25.1397H116.573C116.792 25.1397 116.975 25.2178 117.124 25.3741C117.28 25.5225 117.358 25.7061 117.358 25.9248Z" fill="url(#paint8_linear_54_55)"/>
<defs>
<linearGradient id="paint0_linear_54_55" x1="36.1005" y1="28.5733" x2="117.557" y2="28.5733" gradientUnits="userSpaceOnUse">
<stop stop-color="#AD46FF"/>
<stop offset="1" stop-color="#6E11B0"/>
</linearGradient>
<linearGradient id="paint1_linear_54_55" x1="36.1005" y1="28.5733" x2="117.557" y2="28.5733" gradientUnits="userSpaceOnUse">
<stop stop-color="#AD46FF"/>
<stop offset="1" stop-color="#6E11B0"/>
</linearGradient>
<linearGradient id="paint2_linear_54_55" x1="36.1005" y1="28.5733" x2="117.557" y2="28.5733" gradientUnits="userSpaceOnUse">
<stop stop-color="#AD46FF"/>
<stop offset="1" stop-color="#6E11B0"/>
</linearGradient>
<linearGradient id="paint3_linear_54_55" x1="36.1005" y1="28.5733" x2="117.557" y2="28.5733" gradientUnits="userSpaceOnUse">
<stop stop-color="#AD46FF"/>
<stop offset="1" stop-color="#6E11B0"/>
</linearGradient>
<linearGradient id="paint4_linear_54_55" x1="36.1005" y1="28.5733" x2="117.557" y2="28.5733" gradientUnits="userSpaceOnUse">
<stop stop-color="#AD46FF"/>
<stop offset="1" stop-color="#6E11B0"/>
</linearGradient>
<linearGradient id="paint5_linear_54_55" x1="36.1005" y1="28.5733" x2="117.557" y2="28.5733" gradientUnits="userSpaceOnUse">
<stop stop-color="#AD46FF"/>
<stop offset="1" stop-color="#6E11B0"/>
</linearGradient>
<linearGradient id="paint6_linear_54_55" x1="36.1005" y1="28.5733" x2="117.557" y2="28.5733" gradientUnits="userSpaceOnUse">
<stop stop-color="#AD46FF"/>
<stop offset="1" stop-color="#6E11B0"/>
</linearGradient>
<linearGradient id="paint7_linear_54_55" x1="36.1005" y1="28.5733" x2="117.557" y2="28.5733" gradientUnits="userSpaceOnUse">
<stop stop-color="#AD46FF"/>
<stop offset="1" stop-color="#6E11B0"/>
</linearGradient>
<linearGradient id="paint8_linear_54_55" x1="36.1005" y1="28.5733" x2="117.557" y2="28.5733" gradientUnits="userSpaceOnUse">
<stop stop-color="#AD46FF"/>
<stop offset="1" stop-color="#6E11B0"/>
</linearGradient>
<clipPath id="clip0_54_55">
<rect width="15.1005" height="15.1466" fill="white" transform="translate(14 21)"/>
</clipPath>
</defs>
</svg>
