<svg width="25" height="24" viewBox="0 0 25 24" fill="none" xmlns="http://www.w3.org/2000/svg">
<path d="M16.5001 22.0268V19.1568C16.5376 18.68 16.4732 18.2006 16.3111 17.7506C16.149 17.3006 15.893 16.8902 15.5601 16.5468C18.7001 16.1968 22.0001 15.0068 22.0001 9.54679C21.9998 8.15062 21.4628 6.80799 20.5001 5.79679C20.9559 4.5753 20.9237 3.22514 20.4101 2.02679C20.4101 2.02679 19.2301 1.67679 16.5001 3.50679C14.2081 2.88561 11.7921 2.88561 9.50008 3.50679C6.77008 1.67679 5.59008 2.02679 5.59008 2.02679C5.07645 3.22514 5.04422 4.5753 5.50008 5.79679C4.5302 6.81549 3.9926 8.17026 4.00008 9.57679C4.00008 14.9968 7.30007 16.1868 10.4401 16.5768C10.1111 16.9168 9.85734 17.3222 9.69538 17.7667C9.53343 18.2112 9.46688 18.6849 9.50008 19.1568V22.0268" fill="white" fill-opacity="0.6"/>
<path d="M16.5001 22.0268V19.1568C16.5376 18.68 16.4732 18.2006 16.3111 17.7506C16.149 17.3006 15.893 16.8902 15.5601 16.5468C18.7001 16.1968 22.0001 15.0068 22.0001 9.54679C21.9998 8.15062 21.4628 6.80799 20.5001 5.79679C20.9559 4.5753 20.9237 3.22514 20.4101 2.02679C20.4101 2.02679 19.2301 1.67679 16.5001 3.50679C14.2081 2.88561 11.7921 2.88561 9.50008 3.50679C6.77008 1.67679 5.59008 2.02679 5.59008 2.02679C5.07645 3.22514 5.04422 4.5753 5.50008 5.79679C4.5302 6.81549 3.9926 8.17026 4.00008 9.57679C4.00008 14.9968 7.30007 16.1868 10.4401 16.5768C10.1111 16.9168 9.85734 17.3222 9.69538 17.7667C9.53343 18.2112 9.46688 18.6849 9.50008 19.1568V22.0268" stroke="black" stroke-opacity="0.1" stroke-width="1.5" stroke-linecap="round" stroke-linejoin="round"/>
<path d="M9.5 20.0266C6.5 20.9998 4 20.0266 2.5 17.0266L9.5 20.0266Z" fill="white" fill-opacity="0.6"/>
<path d="M9.5 20.0266C6.5 20.9998 4 20.0266 2.5 17.0266" stroke="black" stroke-opacity="0.1" stroke-width="1.5" stroke-linecap="round" stroke-linejoin="round"/>
</svg>
