<svg width="25" height="24" viewBox="0 0 25 24" fill="none" xmlns="http://www.w3.org/2000/svg">
<path d="M16.5 22.0268V19.1568C16.5375 18.68 16.4731 18.2006 16.311 17.7506C16.1489 17.3006 15.8929 16.8902 15.56 16.5468C18.7 16.1968 22 15.0068 22 9.54679C21.9997 8.15062 21.4627 6.80799 20.5 5.79679C20.9558 4.5753 20.9236 3.22514 20.41 2.02679C20.41 2.02679 19.23 1.67679 16.5 3.50679C14.208 2.88561 11.792 2.88561 9.49996 3.50679C6.76996 1.67679 5.58996 2.02679 5.58996 2.02679C5.07633 3.22514 5.04409 4.5753 5.49995 5.79679C4.53007 6.81549 3.99247 8.17026 3.99995 9.57679C3.99995 14.9968 7.29994 16.1868 10.4399 16.5768C10.1109 16.9168 9.85721 17.3222 9.69525 17.7667C9.5333 18.2112 9.46676 18.6849 9.49996 19.1568V22.0268" fill="black"/>
<path d="M16.5 22.0268V19.1568C16.5375 18.68 16.4731 18.2006 16.311 17.7506C16.1489 17.3006 15.8929 16.8902 15.56 16.5468C18.7 16.1968 22 15.0068 22 9.54679C21.9997 8.15062 21.4627 6.80799 20.5 5.79679C20.9558 4.5753 20.9236 3.22514 20.41 2.02679C20.41 2.02679 19.23 1.67679 16.5 3.50679C14.208 2.88561 11.792 2.88561 9.49996 3.50679C6.76996 1.67679 5.58996 2.02679 5.58996 2.02679C5.07633 3.22514 5.04409 4.5753 5.49995 5.79679C4.53007 6.81549 3.99247 8.17026 3.99995 9.57679C3.99995 14.9968 7.29994 16.1868 10.4399 16.5768C10.1109 16.9168 9.85721 17.3222 9.69525 17.7667C9.5333 18.2112 9.46676 18.6849 9.49996 19.1568V22.0268" stroke="black" stroke-width="1.5" stroke-linecap="round" stroke-linejoin="round"/>
<path d="M9.5 20.0269C6.5 21.0001 4 20.0269 2.5 17.0269L9.5 20.0269Z" fill="black"/>
<path d="M9.5 20.0269C6.5 21.0001 4 20.0269 2.5 17.0269" stroke="black" stroke-width="1.5" stroke-linecap="round" stroke-linejoin="round"/>
</svg>
