<svg width="25" height="24" viewBox="0 0 25 24" fill="none" xmlns="http://www.w3.org/2000/svg">
<path d="M16.517 2H8.447C6.87015 2.00185 5.35844 2.62914 4.24353 3.74424C3.12862 4.85933 2.50159 6.37115 2.5 7.948L2.5 16.018C2.50185 17.5948 3.12914 19.1066 4.24424 20.2215C5.35933 21.3364 6.87115 21.9634 8.448 21.965H16.518C18.0948 21.9631 19.6066 21.3359 20.7215 20.2208C21.8364 19.1057 22.4634 17.5938 22.465 16.017V7.947C22.4631 6.37015 21.8359 4.85844 20.7208 3.74353C19.6057 2.62862 18.0938 2.00159 16.517 2V2ZM20.457 16.017C20.457 16.5344 20.3551 17.0468 20.1571 17.5248C19.9591 18.0028 19.6689 18.4371 19.303 18.803C18.9371 19.1689 18.5028 19.4591 18.0248 19.6571C17.5468 19.8551 17.0344 19.957 16.517 19.957H8.447C7.40222 19.9567 6.40032 19.5415 5.66165 18.8026C4.92297 18.0638 4.508 17.0618 4.508 16.017V7.947C4.50827 6.90222 4.92349 5.90032 5.66235 5.16165C6.40122 4.42297 7.40322 4.008 8.448 4.008H16.518C17.5628 4.00827 18.5647 4.42349 19.3034 5.16235C20.042 5.90122 20.457 6.90322 20.457 7.948V16.018V16.017Z" fill="black"/>
<path d="M12.4819 6.81885C11.1134 6.82096 9.80148 7.36563 8.83385 8.33345C7.86621 9.30127 7.3218 10.6133 7.31995 11.9818C7.32153 13.3508 7.86597 14.6632 8.83385 15.6312C9.80172 16.5993 11.114 17.144 12.4829 17.1458C13.852 17.1443 15.1646 16.5997 16.1327 15.6316C17.1008 14.6635 17.6454 13.3509 17.6469 11.9818C17.6448 10.6129 17.0999 9.30073 16.1316 8.33304C15.1634 7.36535 13.8509 6.82117 12.4819 6.81985V6.81885ZM12.4819 15.1378C11.6452 15.1378 10.8427 14.8054 10.251 14.2138C9.65935 13.6221 9.32695 12.8196 9.32695 11.9828C9.32695 11.1461 9.65935 10.3436 10.251 9.75193C10.8427 9.16025 11.6452 8.82785 12.4819 8.82785C13.3187 8.82785 14.1212 9.16025 14.7129 9.75193C15.3045 10.3436 15.6369 11.1461 15.6369 11.9828C15.6369 12.8196 15.3045 13.6221 14.7129 14.2138C14.1212 14.8054 13.3187 15.1378 12.4819 15.1378Z" fill="black"/>
<path d="M17.6559 8.09509C18.3391 8.09509 18.8929 7.54127 18.8929 6.85809C18.8929 6.17492 18.3391 5.62109 17.6559 5.62109C16.9728 5.62109 16.4189 6.17492 16.4189 6.85809C16.4189 7.54127 16.9728 8.09509 17.6559 8.09509Z" fill="black"/>
</svg>
