<svg width="123" height="58" viewBox="0 0 123 58" fill="none" xmlns="http://www.w3.org/2000/svg">
<g clip-path="url(#clip0_54_40)">
<path d="M19.5998 30.633C21.6416 32.6749 23.6709 34.7041 24.1676 35.2008C23.723 34.7019 23.453 34.0449 23.453 33.3247V26.5048C19.6958 22.6862 18.8231 21.8371 18.8039 21.8557C18.7902 21.8689 19.2611 22.2888 19.4823 23.0144C19.5817 23.3399 19.6003 23.627 19.5998 23.8218V30.633Z" fill="#8200DB"/>
<path d="M28.4528 35.119C28.916 34.5603 29.1312 33.8654 29.0972 33.1798V33.3242C29.0972 34.0059 28.8557 34.6311 28.4528 35.119Z" fill="#D9068E"/>
<path d="M28.4506 35.1218C28.4231 35.1547 28.3951 35.1871 28.3666 35.2189C28.3957 35.1871 28.4237 35.1547 28.4506 35.1218Z" fill="#D9068E"/>
<path d="M28.453 35.119C28.453 35.119 28.4512 35.1209 28.4506 35.1215C28.4512 35.1209 28.4524 35.1197 28.453 35.119Z" fill="#0E0E68"/>
<path d="M24.2829 35.3161L24.1676 35.2008C24.6847 35.781 25.4366 36.1466 26.2748 36.1466C27.1042 36.1466 27.8501 35.7887 28.366 35.2189C28.3359 35.2519 28.3051 35.2843 28.2738 35.3161C27.1717 36.4183 25.385 36.4183 24.2829 35.3161Z" fill="#0E0E68"/>
<path d="M28.2738 31.3251C28.7892 31.8405 29.0631 32.5052 29.0966 33.1798C29.0966 31.9898 29.0966 23.8323 29.0966 23.8218C29.0966 25.3801 27.8331 26.6437 26.2748 26.6437C24.7165 26.6437 23.453 25.3801 23.453 23.8218C23.453 23.8218 23.453 24.9888 23.453 26.5043C25.8483 28.8996 28.2727 31.324 28.2738 31.3251Z" fill="#59168B"/>
<path d="M24.1676 35.2008L24.2829 35.3161C25.385 36.4183 27.1717 36.4183 28.2738 35.3161C28.3057 35.2843 28.3364 35.2519 28.3661 35.2189C28.3946 35.1871 28.4231 35.1547 28.45 35.1218C28.4506 35.1212 28.4517 35.1201 28.4522 35.1196C28.8546 34.6316 29.0966 34.0064 29.0966 33.3247V33.1804C29.0631 32.5058 28.7887 31.8411 28.2738 31.3257C28.2727 31.3246 25.8483 28.9001 23.453 26.5048C23.453 29.3145 23.453 33.3231 23.453 33.3247C23.453 34.0454 23.7236 34.7024 24.1676 35.2008Z" fill="#6E11B0"/>
<path d="M29.0966 23.8218C29.0966 22.2635 27.8331 21 26.2748 21C24.7165 21 23.453 22.2635 23.453 23.8218C23.453 25.3801 24.7165 26.6437 26.2748 26.6437C27.8331 26.6437 29.0966 25.3801 29.0966 23.8218Z" fill="#3C0366"/>
<path d="M14.4062 22.0272C14.4062 22.0272 14.408 22.0254 14.4086 22.0248C14.408 22.0254 14.4068 22.0266 14.4062 22.0272Z" fill="#0E0E68"/>
<path d="M14.8228 25.8209C14.3079 25.306 14.0335 24.6408 14 23.9662C14 25.1562 14 33.3137 14 33.3242C14 31.7659 15.2635 30.5023 16.8218 30.5023C18.3801 30.5023 19.6437 31.7659 19.6437 33.3242C19.6437 33.3242 19.6437 32.1572 19.6437 30.6418C17.2483 28.2464 14.8239 25.822 14.8228 25.8209Z" fill="#AD46FF"/>
<path d="M18.929 21.9457L18.8137 21.8305C17.7116 20.7283 15.925 20.7283 14.8228 21.8305C14.7909 21.8623 14.7602 21.8947 14.7306 21.9276C14.702 21.9595 14.6735 21.9918 14.6466 22.0248C14.646 22.0253 14.6449 22.0264 14.6444 22.027C14.2415 22.5149 14 23.1401 14 23.8218V23.9662C14.0335 24.6408 14.3079 25.3055 14.8228 25.8209C14.8239 25.822 17.2483 28.2464 19.6437 30.6418C19.6437 27.832 19.6437 23.8235 19.6437 23.8218C19.6437 23.1011 19.3731 22.4441 18.929 21.9457Z" fill="#9810FA"/>
<path d="M14 33.3242C14 34.8825 15.2635 36.146 16.8218 36.146C18.3801 36.146 19.6437 34.8825 19.6437 33.3242C19.6437 31.7659 18.3801 30.5023 16.8218 30.5023C15.2635 30.5029 14 31.7659 14 33.3242Z" fill="#C27AFF"/>
</g>
<path d="M41.9205 24.2173C42.1045 24.2173 42.2405 24.2253 42.3285 24.2413C42.4245 24.2493 42.5285 24.2853 42.6405 24.3493C42.7605 24.4133 42.8445 24.5213 42.8925 24.6733C42.9405 24.8253 42.9645 25.0293 42.9645 25.2853C42.9645 25.5413 42.9405 25.7453 42.8925 25.8973C42.8445 26.0493 42.7605 26.1573 42.6405 26.2213C42.5205 26.2773 42.4125 26.3133 42.3165 26.3293C42.2285 26.3373 42.0885 26.3413 41.8965 26.3413H38.2245V27.5533H40.5885C40.7805 27.5533 40.9205 27.5613 41.0085 27.5773C41.1045 27.5853 41.2085 27.6213 41.3205 27.6853C41.4405 27.7493 41.5245 27.8613 41.5725 28.0213C41.6205 28.1733 41.6445 28.3773 41.6445 28.6333C41.6445 28.8413 41.6245 29.0133 41.5845 29.1493C41.5445 29.2853 41.4965 29.3893 41.4405 29.4613C41.3845 29.5333 41.3005 29.5893 41.1885 29.6293C41.0845 29.6613 40.9925 29.6813 40.9125 29.6893C40.8405 29.6893 40.7285 29.6893 40.5765 29.6893H38.2245V31.9573C38.2245 32.1493 38.2165 32.2893 38.2005 32.3773C38.1925 32.4653 38.1565 32.5693 38.0925 32.6893C38.0285 32.8093 37.9205 32.8933 37.7685 32.9413C37.6165 32.9893 37.4125 33.0133 37.1565 33.0133C36.9485 33.0133 36.7765 32.9933 36.6405 32.9533C36.5045 32.9133 36.4005 32.8653 36.3285 32.8093C36.2565 32.7533 36.2005 32.6733 36.1605 32.5693C36.1285 32.4573 36.1085 32.3653 36.1005 32.2933C36.1005 32.2133 36.1005 32.0973 36.1005 31.9453V25.2733C36.1005 24.8653 36.1765 24.5893 36.3285 24.4453C36.4805 24.2933 36.7685 24.2173 37.1925 24.2173H41.9205Z" fill="url(#paint0_linear_54_40)"/>
<path d="M50.4731 31.5253C50.5931 31.8133 50.6531 32.0213 50.6531 32.1493C50.6531 32.4533 50.4051 32.7093 49.9091 32.9173C49.6531 33.0293 49.4371 33.0853 49.2611 33.0853C49.1251 33.0853 49.0051 33.0493 48.9011 32.9773C48.8051 32.8973 48.7331 32.8173 48.6851 32.7373C48.6451 32.6573 48.5891 32.5333 48.5171 32.3653C48.3411 31.9653 48.0851 31.3653 47.7491 30.5653L47.3771 30.5893H45.8651V31.9453C45.8651 32.1293 45.8571 32.2693 45.8411 32.3653C45.8331 32.4533 45.7971 32.5573 45.7331 32.6773C45.6691 32.7973 45.5611 32.8813 45.4091 32.9293C45.2571 32.9773 45.0531 33.0013 44.7971 33.0013C44.5891 33.0013 44.4171 32.9813 44.2811 32.9413C44.1451 32.9013 44.0411 32.8533 43.9691 32.7973C43.8971 32.7413 43.8411 32.6613 43.8011 32.5573C43.7691 32.4453 43.7491 32.3533 43.7411 32.2813C43.7411 32.2013 43.7411 32.0853 43.7411 31.9333V25.2733C43.7411 25.0893 43.7451 24.9533 43.7531 24.8653C43.7691 24.7693 43.8091 24.6613 43.8731 24.5413C43.9371 24.4213 44.0451 24.3373 44.1971 24.2893C44.3491 24.2413 44.5531 24.2173 44.8091 24.2173H47.4011C47.7371 24.2173 48.0811 24.2853 48.4331 24.4213C48.7931 24.5493 49.1331 24.7373 49.4531 24.9853C49.7731 25.2333 50.0371 25.5693 50.2451 25.9933C50.4531 26.4173 50.5571 26.8893 50.5571 27.4093C50.5571 28.3133 50.2571 29.0573 49.6571 29.6413C49.8331 30.0653 50.1051 30.6933 50.4731 31.5253ZM45.8651 28.4653H47.4011C47.6331 28.4653 47.8651 28.3773 48.0971 28.2013C48.3291 28.0253 48.4451 27.7573 48.4451 27.3973C48.4451 27.0533 48.3291 26.7933 48.0971 26.6173C47.8651 26.4333 47.6251 26.3413 47.3771 26.3413H45.8651V28.4653Z" fill="url(#paint1_linear_54_40)"/>
<path d="M55.3222 24.1093C56.5062 24.1093 57.5342 24.5373 58.4062 25.3933C59.2782 26.2493 59.7142 27.3333 59.7142 28.6453C59.7142 29.8693 59.2982 30.9293 58.4662 31.8253C57.6342 32.7133 56.6222 33.1573 55.4302 33.1573C54.1902 33.1573 53.1422 32.7173 52.2862 31.8373C51.4382 30.9573 51.0142 29.9093 51.0142 28.6933C51.0142 28.0293 51.1342 27.4093 51.3742 26.8333C51.6142 26.2493 51.9342 25.7613 52.3342 25.3693C52.7342 24.9773 53.1942 24.6693 53.7142 24.4453C54.2342 24.2213 54.7702 24.1093 55.3222 24.1093ZM55.3582 31.0333C55.9342 31.0333 56.4502 30.8173 56.9062 30.3853C57.3622 29.9533 57.5902 29.3693 57.5902 28.6333C57.5902 27.9133 57.3582 27.3333 56.8942 26.8933C56.4382 26.4533 55.9302 26.2333 55.3702 26.2333C54.7942 26.2333 54.2782 26.4573 53.8222 26.9053C53.3662 27.3453 53.1382 27.9253 53.1382 28.6453C53.1382 29.3493 53.3662 29.9253 53.8222 30.3733C54.2862 30.8133 54.7982 31.0333 55.3582 31.0333Z" fill="url(#paint2_linear_54_40)"/>
<path d="M67.1349 24.2293C67.3349 24.2293 67.5029 24.2493 67.6389 24.2893C67.7829 24.3293 67.8869 24.3773 67.9509 24.4333C68.0229 24.4893 68.0749 24.5733 68.1069 24.6853C68.1469 24.7893 68.1669 24.8813 68.1669 24.9613C68.1749 25.0333 68.1789 25.1453 68.1789 25.2973V31.9573C68.1789 32.1493 68.1709 32.2893 68.1549 32.3773C68.1469 32.4653 68.1109 32.5693 68.0469 32.6893C67.9829 32.8093 67.8749 32.8933 67.7229 32.9413C67.5709 32.9893 67.3669 33.0133 67.1109 33.0133C66.7989 33.0133 66.5829 32.9893 66.4629 32.9413C66.3429 32.8933 66.2429 32.8173 66.1629 32.7133C64.3629 30.3133 63.1789 28.7453 62.6109 28.0093V31.9573C62.6109 32.1493 62.6029 32.2893 62.5869 32.3773C62.5789 32.4653 62.5429 32.5693 62.4789 32.6893C62.4149 32.8093 62.3069 32.8933 62.1549 32.9413C62.0029 32.9893 61.7989 33.0133 61.5429 33.0133C61.2949 33.0133 61.0949 32.9893 60.9429 32.9413C60.7989 32.8933 60.6949 32.8093 60.6309 32.6893C60.5669 32.5693 60.5269 32.4613 60.5109 32.3653C60.5029 32.2693 60.4989 32.1293 60.4989 31.9453V25.2493C60.4989 25.0653 60.5069 24.9293 60.5229 24.8413C60.5389 24.7533 60.5749 24.6533 60.6309 24.5413C60.6949 24.4293 60.8029 24.3493 60.9549 24.3013C61.1069 24.2533 61.3109 24.2293 61.5669 24.2293C61.7909 24.2293 61.9709 24.2533 62.1069 24.3013C62.2509 24.3413 62.3509 24.3893 62.4069 24.4453C62.4629 24.4933 62.5349 24.5733 62.6229 24.6853L62.6829 24.7573C64.3709 27.0533 65.4989 28.5693 66.0669 29.3053V25.2493C66.0669 25.0653 66.0749 24.9293 66.0909 24.8413C66.1069 24.7533 66.1429 24.6533 66.1989 24.5413C66.2629 24.4293 66.3709 24.3493 66.5229 24.3013C66.6749 24.2533 66.8789 24.2293 67.1349 24.2293Z" fill="url(#paint3_linear_54_40)"/>
<path d="M75.7716 24.2293C75.9716 24.2293 76.1396 24.2493 76.2756 24.2893C76.4196 24.3293 76.5236 24.3773 76.5876 24.4333C76.6596 24.4893 76.7116 24.5733 76.7436 24.6853C76.7836 24.7893 76.8036 24.8813 76.8036 24.9613C76.8116 25.0333 76.8156 25.1453 76.8156 25.2973V31.9573C76.8156 32.1493 76.8076 32.2893 76.7916 32.3773C76.7836 32.4653 76.7476 32.5693 76.6836 32.6893C76.6196 32.8093 76.5116 32.8933 76.3596 32.9413C76.2076 32.9893 76.0036 33.0133 75.7476 33.0133C75.4356 33.0133 75.2196 32.9893 75.0996 32.9413C74.9796 32.8933 74.8796 32.8173 74.7996 32.7133C72.9996 30.3133 71.8156 28.7453 71.2476 28.0093V31.9573C71.2476 32.1493 71.2396 32.2893 71.2236 32.3773C71.2156 32.4653 71.1796 32.5693 71.1156 32.6893C71.0516 32.8093 70.9436 32.8933 70.7916 32.9413C70.6396 32.9893 70.4356 33.0133 70.1796 33.0133C69.9316 33.0133 69.7316 32.9893 69.5796 32.9413C69.4356 32.8933 69.3316 32.8093 69.2676 32.6893C69.2036 32.5693 69.1636 32.4613 69.1476 32.3653C69.1396 32.2693 69.1356 32.1293 69.1356 31.9453V25.2493C69.1356 25.0653 69.1436 24.9293 69.1596 24.8413C69.1756 24.7533 69.2116 24.6533 69.2676 24.5413C69.3316 24.4293 69.4396 24.3493 69.5916 24.3013C69.7436 24.2533 69.9476 24.2293 70.2036 24.2293C70.4276 24.2293 70.6076 24.2533 70.7436 24.3013C70.8876 24.3413 70.9876 24.3893 71.0436 24.4453C71.0996 24.4933 71.1716 24.5733 71.2596 24.6853L71.3196 24.7573C73.0076 27.0533 74.1356 28.5693 74.7036 29.3053V25.2493C74.7036 25.0653 74.7116 24.9293 74.7276 24.8413C74.7436 24.7533 74.7796 24.6533 74.8356 24.5413C74.8996 24.4293 75.0076 24.3493 75.1596 24.3013C75.3116 24.2533 75.5156 24.2293 75.7716 24.2293Z" fill="url(#paint4_linear_54_40)"/>
<path d="M79.8963 30.8893H83.5923C83.7763 30.8893 83.9123 30.8973 84.0003 30.9133C84.0963 30.9213 84.2043 30.9573 84.3243 31.0213C84.4443 31.0853 84.5283 31.1933 84.5763 31.3453C84.6243 31.4973 84.6483 31.7013 84.6483 31.9573C84.6483 32.1653 84.6283 32.3373 84.5883 32.4733C84.5483 32.6093 84.5003 32.7133 84.4443 32.7853C84.3883 32.8573 84.3043 32.9133 84.1923 32.9533C84.0883 32.9853 83.9963 33.0053 83.9163 33.0133C83.8443 33.0133 83.7323 33.0133 83.5803 33.0133H78.8283C78.6203 33.0133 78.4483 32.9933 78.3123 32.9533C78.1763 32.9133 78.0723 32.8653 78.0003 32.8093C77.9283 32.7533 77.8723 32.6733 77.8323 32.5693C77.8003 32.4573 77.7803 32.3653 77.7723 32.2933C77.7723 32.2133 77.7723 32.0973 77.7723 31.9453V25.2733C77.7723 24.8653 77.8483 24.5893 78.0003 24.4453C78.1523 24.2933 78.4403 24.2173 78.8643 24.2173H83.5923C83.7763 24.2173 83.9123 24.2253 84.0003 24.2413C84.0963 24.2493 84.2043 24.2853 84.3243 24.3493C84.4443 24.4133 84.5283 24.5213 84.5763 24.6733C84.6243 24.8253 84.6483 25.0293 84.6483 25.2853C84.6483 25.4933 84.6283 25.6653 84.5883 25.8013C84.5483 25.9373 84.5003 26.0413 84.4443 26.1133C84.3883 26.1853 84.3043 26.2413 84.1923 26.2813C84.0883 26.3133 83.9963 26.3333 83.9163 26.3413C83.8443 26.3413 83.7323 26.3413 83.5803 26.3413H79.8963V27.5533H82.2723C82.4563 27.5533 82.5923 27.5613 82.6803 27.5773C82.7763 27.5853 82.8843 27.6213 83.0043 27.6853C83.1243 27.7493 83.2083 27.8573 83.2563 28.0093C83.3043 28.1613 83.3283 28.3653 83.3283 28.6213C83.3283 28.8293 83.3083 29.0013 83.2683 29.1373C83.2283 29.2733 83.1803 29.3773 83.1243 29.4493C83.0683 29.5213 82.9843 29.5773 82.8723 29.6173C82.7603 29.6493 82.6643 29.6693 82.5843 29.6773C82.5123 29.6773 82.4003 29.6773 82.2483 29.6773H79.8963V30.8893Z" fill="url(#paint5_linear_54_40)"/>
<path d="M90.8367 28.5613L93.2487 31.2133C93.5207 31.5173 93.6567 31.7613 93.6567 31.9453C93.6567 32.1773 93.5007 32.4333 93.1887 32.7133C92.8847 32.9933 92.6207 33.1333 92.3967 33.1333C92.1967 33.1333 91.9567 32.9733 91.6767 32.6533L89.3967 30.0373L87.1167 32.6533C86.8287 32.9733 86.5887 33.1333 86.3967 33.1333C86.1807 33.1333 85.9167 32.9933 85.6047 32.7133C85.2847 32.4253 85.1247 32.1653 85.1247 31.9333C85.1247 31.7653 85.2647 31.5253 85.5447 31.2133L87.9567 28.5613L85.5447 25.9093C85.2647 25.6133 85.1247 25.3733 85.1247 25.1893C85.1247 24.9573 85.2847 24.6973 85.6047 24.4093C85.9087 24.1293 86.1727 23.9893 86.3967 23.9893C86.5967 23.9893 86.8367 24.1493 87.1167 24.4693L89.3967 27.0853L91.6767 24.4693C91.9647 24.1493 92.2047 23.9893 92.3967 23.9893C92.6127 23.9893 92.8767 24.1293 93.1887 24.4093C93.5007 24.6893 93.6567 24.9493 93.6567 25.1893C93.6567 25.3813 93.5207 25.6213 93.2487 25.9093L90.8367 28.5613Z" fill="url(#paint6_linear_54_40)"/>
<path d="M101.015 24.2053C101.223 24.2053 101.395 24.2253 101.531 24.2653C101.667 24.3053 101.771 24.3533 101.843 24.4093C101.915 24.4653 101.967 24.5493 101.999 24.6613C102.039 24.7733 102.059 24.8693 102.059 24.9493C102.067 25.0213 102.071 25.1333 102.071 25.2853V28.9093C102.071 29.4213 101.983 29.9253 101.807 30.4213C101.639 30.9173 101.395 31.3733 101.075 31.7893C100.763 32.1973 100.355 32.5293 99.8512 32.7853C99.3472 33.0333 98.7872 33.1573 98.1712 33.1573C97.5632 33.1573 97.0072 33.0293 96.5032 32.7733C96.0072 32.5173 95.6032 32.1853 95.2912 31.7773C94.9792 31.3613 94.7392 30.9053 94.5712 30.4093C94.4032 29.9053 94.3192 29.3973 94.3192 28.8853V25.2733C94.3192 25.0813 94.3232 24.9413 94.3312 24.8533C94.3472 24.7573 94.3872 24.6493 94.4512 24.5293C94.5152 24.4093 94.6232 24.3253 94.7752 24.2773C94.9272 24.2293 95.1312 24.2053 95.3872 24.2053C95.6432 24.2053 95.8472 24.2293 95.9992 24.2773C96.1512 24.3253 96.2552 24.4093 96.3112 24.5293C96.3752 24.6493 96.4152 24.7573 96.4312 24.8533C96.4472 24.9493 96.4552 25.0933 96.4552 25.2853V28.8853C96.4552 29.1253 96.4832 29.3613 96.5392 29.5933C96.5952 29.8173 96.6832 30.0453 96.8032 30.2773C96.9312 30.5013 97.1152 30.6813 97.3552 30.8173C97.5952 30.9533 97.8792 31.0213 98.2072 31.0213C98.7912 31.0213 99.2272 30.8053 99.5152 30.3733C99.8032 29.9413 99.9472 29.4413 99.9472 28.8733V25.2013C99.9472 25.0253 99.9552 24.8933 99.9712 24.8053C99.9872 24.7093 100.027 24.6093 100.091 24.5053C100.155 24.4013 100.263 24.3253 100.415 24.2773C100.567 24.2293 100.767 24.2053 101.015 24.2053Z" fill="url(#paint7_linear_54_40)"/>
<path d="M102.795 31.7773C102.587 31.5213 102.483 31.3093 102.483 31.1413C102.483 30.9013 102.655 30.6133 102.999 30.2773C103.199 30.0853 103.399 29.9893 103.599 29.9893C103.847 29.9893 104.151 30.1693 104.511 30.5293L104.571 30.5893C104.603 30.6293 104.651 30.6813 104.715 30.7453C104.779 30.8093 104.903 30.8973 105.087 31.0093C105.271 31.1133 105.451 31.1653 105.627 31.1653C106.371 31.1653 106.743 30.8613 106.743 30.2533C106.743 30.0693 106.639 29.9173 106.431 29.7973C106.231 29.6693 105.979 29.5773 105.675 29.5213C105.371 29.4653 105.043 29.3773 104.691 29.2573C104.339 29.1293 104.011 28.9813 103.707 28.8133C103.403 28.6453 103.147 28.3813 102.939 28.0213C102.739 27.6533 102.639 27.2133 102.639 26.7013C102.639 25.9973 102.899 25.3853 103.419 24.8653C103.947 24.3373 104.663 24.0733 105.567 24.0733C106.047 24.0733 106.483 24.1373 106.875 24.2653C107.275 24.3853 107.551 24.5093 107.703 24.6373L107.943 24.8173L108.003 24.8653C108.251 25.0973 108.375 25.2893 108.375 25.4413C108.375 25.6093 108.279 25.8333 108.087 26.1133C107.815 26.5133 107.535 26.7133 107.247 26.7133C107.079 26.7133 106.871 26.6333 106.623 26.4733C106.599 26.4573 106.551 26.4173 106.479 26.3533C106.415 26.2893 106.355 26.2413 106.299 26.2093C106.243 26.1693 106.147 26.1333 106.011 26.1013C105.883 26.0613 105.731 26.0413 105.555 26.0413C105.363 26.0413 105.179 26.1053 105.003 26.2333C104.835 26.3533 104.751 26.5133 104.751 26.7133C104.751 26.9533 104.851 27.1413 105.051 27.2773C105.259 27.4133 105.515 27.5053 105.819 27.5533C106.123 27.6013 106.455 27.6773 106.815 27.7813C107.175 27.8773 107.507 27.9973 107.811 28.1413C108.115 28.2853 108.367 28.5373 108.567 28.8973C108.775 29.2493 108.879 29.6893 108.879 30.2173C108.879 30.7293 108.775 31.1853 108.567 31.5853C108.359 31.9773 108.087 32.2813 107.751 32.4973C107.423 32.7133 107.083 32.8733 106.731 32.9773C106.379 33.0813 106.027 33.1333 105.675 33.1333C105.299 33.1333 104.943 33.0893 104.607 33.0013C104.271 32.9053 103.995 32.7933 103.779 32.6653C103.571 32.5293 103.387 32.3933 103.227 32.2573C103.075 32.1213 102.967 32.0053 102.903 31.9093L102.795 31.7773Z" fill="url(#paint8_linear_54_40)"/>
<defs>
<linearGradient id="paint0_linear_54_40" x1="36.1005" y1="28.5733" x2="108.879" y2="28.5733" gradientUnits="userSpaceOnUse">
<stop stop-color="#AD46FF"/>
<stop offset="1" stop-color="#6E11B0"/>
</linearGradient>
<linearGradient id="paint1_linear_54_40" x1="36.1005" y1="28.5733" x2="108.879" y2="28.5733" gradientUnits="userSpaceOnUse">
<stop stop-color="#AD46FF"/>
<stop offset="1" stop-color="#6E11B0"/>
</linearGradient>
<linearGradient id="paint2_linear_54_40" x1="36.1005" y1="28.5733" x2="108.879" y2="28.5733" gradientUnits="userSpaceOnUse">
<stop stop-color="#AD46FF"/>
<stop offset="1" stop-color="#6E11B0"/>
</linearGradient>
<linearGradient id="paint3_linear_54_40" x1="36.1005" y1="28.5733" x2="108.879" y2="28.5733" gradientUnits="userSpaceOnUse">
<stop stop-color="#AD46FF"/>
<stop offset="1" stop-color="#6E11B0"/>
</linearGradient>
<linearGradient id="paint4_linear_54_40" x1="36.1005" y1="28.5733" x2="108.879" y2="28.5733" gradientUnits="userSpaceOnUse">
<stop stop-color="#AD46FF"/>
<stop offset="1" stop-color="#6E11B0"/>
</linearGradient>
<linearGradient id="paint5_linear_54_40" x1="36.1005" y1="28.5733" x2="108.879" y2="28.5733" gradientUnits="userSpaceOnUse">
<stop stop-color="#AD46FF"/>
<stop offset="1" stop-color="#6E11B0"/>
</linearGradient>
<linearGradient id="paint6_linear_54_40" x1="36.1005" y1="28.5733" x2="108.879" y2="28.5733" gradientUnits="userSpaceOnUse">
<stop stop-color="#AD46FF"/>
<stop offset="1" stop-color="#6E11B0"/>
</linearGradient>
<linearGradient id="paint7_linear_54_40" x1="36.1005" y1="28.5733" x2="108.879" y2="28.5733" gradientUnits="userSpaceOnUse">
<stop stop-color="#AD46FF"/>
<stop offset="1" stop-color="#6E11B0"/>
</linearGradient>
<linearGradient id="paint8_linear_54_40" x1="36.1005" y1="28.5733" x2="108.879" y2="28.5733" gradientUnits="userSpaceOnUse">
<stop stop-color="#AD46FF"/>
<stop offset="1" stop-color="#6E11B0"/>
</linearGradient>
<clipPath id="clip0_54_40">
<rect width="15.1005" height="15.1466" fill="white" transform="translate(14 21)"/>
</clipPath>
</defs>
</svg>
